#!OML:ASF F:\VICON\USERDATA\INSTALL\rory3\rory3.ASF
:FULLY-SPECIFIED
:DEGREES
596
root -1.25158 16.4026 -10.5358 27.6577 15.8282 2.36047
lowerback 3.08515 -0.654566 4.73865
upperback -5.21193 -0.388706 2.51185
thorax -7.20652 -0.366045 0.0141515
lowerneck -8.41428 -2.16435 -3.59806
upperneck 13.1324 -3.26025 5.98728
head 5.49539 -1.34706 2.23151
rclavicle -1.90833e-014 5.08889e-014
rhumerus -9.02508 30.1083 0.448304
rradius 18.9652
rwrist -10.7444
rhand 8.2625 -15.2926
rfingers 7.12502
rthumb 33.4766 -42.191
lclavicle -1.90833e-014 5.08889e-014
lhumerus -22.1822 -19.3361 7.90622
lradius 16.9781
lwrist -45.4962
lhand -8.61876 22.7763
lfingers 7.12502
lthumb 17.3134 52.0251
rfemur -59.6288 25.517 -17.138
rtibia 38.894
rfoot -20.6613 1.36073
rtoes -25.849
lfemur -46.8566 -7.8876 -22.3924
ltibia 42.1927
lfoot -28.5488 13.2307
ltoes 9.71664
597
root -1.32084 16.383 -10.5098 28.1305 17.262 2.69077
lowerback 3.55144 -0.530747 4.88496
upperback -4.9892 -0.187258 2.53978
thorax -7.23327 -0.270995 -0.0558697
lowerneck -8.72838 -2.62131 -3.91217
upperneck 12.4393 -3.83224 6.25753
head 5.37421 -1.62466 2.32033
rclavicle 1.66979e-014 1.11319e-014
rhumerus -7.71499 30.3941 -0.362538
rradius 18.7093
rwrist -10.0475
rhand 7.76423 -13.9623
rfingers 7.12502
rthumb 33.0028 -40.9619
lclavicle 1.66979e-014 1.11319e-014
lhumerus -22.5754 -18.9329 7.89593
lradius 16.7642
lwrist -45.8001
lhand -10.8404 23.6825
lfingers 7.12502
lthumb 15.1743 53.1061
rfemur -59.1469 25.02 -16.6666
rtibia 39.3776
rfoot -20.6876 1.53683
rtoes -19.6519
lfemur -47.6341 -7.93363 -22.2446
ltibia 42.6188
lfoot -27.5836 12.5194
ltoes 7.34417
598
root -1.39163 16.3699 -10.4856 28.5937 18.8624 2.83636
lowerback 4.10793 -0.409169 5.31636
upperback -4.85017 0.0502545 2.63089
thorax -7.40364 -0.17474 -0.221614
lowerneck -8.89641 -3.09164 -4.28999
upperneck 11.6533 -4.41596 6.58438
head 5.20639 -1.91109 2.43746
rclavicle -4.8901e-014 -2.38542e-014
rhumerus -6.09994 30.7905 -1.02137
rradius 18.7907
rwrist -10.203
rhand 8.56239 -14.6813
rfingers 7.12502
rthumb 33.7616 -41.5176
lclavicle -4.8901e-014 -2.38542e-014
lhumerus -22.9412 -18.428 7.86662
lradius 16.6535
lwrist -46.3849
lhand -10.7719 24.2584
lfingers 7.12502
lthumb 15.2402 53.677
rfemur -58.7781 24.8537 -16.1539
rtibia 39.8858
rfoot -21.3134 -0.440125
rtoes -17.6616
lfemur -48.465 -8.06671 -21.7758
ltibia 42.9943
lfoot -26.7333 11.4936
ltoes 6.23746
599
root -1.46632 16.3666 -10.4668 29.1214 20.6535 2.94504
lowerback 4.64293 -0.331549 5.91821
upperback -4.66203 0.244505 2.73804
thorax -7.50983 -0.106986 -0.46407
lowerneck -9.28403 -3.64755 -4.69725
upperneck 10.9015 -5.11745 7.03427
head 5.10235 -2.24391 2.58543
rclavicle 1.19271e-014 -1.90833e-014
rhumerus -4.593 30.6399 -1.77809
rradius 18.6507
rwrist -9.11831
rhand 8.85157 -13.9634
rfingers 7.12502
rthumb 34.0363 -40.7391
lclavicle 1.19271e-014 -1.90833e-014
lhumerus -23.1889 -17.7017 7.75843
lradius 16.5865
lwrist -47.1199
lhand -9.91929 24.6726
lfingers 7.12502
lthumb 16.0614 54.027
rfemur -58.4728 24.7981 -15.6102
rtibia 40.3848
rfoot -21.9613 -4.24919
rtoes -21.0356
lfemur -49.3577 -8.26023 -21.1595
ltibia 43.257
lfoot -25.8898 10.3001
ltoes 5.01078
600
root -1.54101 16.3716 -10.4465 29.7951 22.8008 3.10761
lowerback 5.07353 -0.321536 6.84601
upperback -4.54064 0.374633 2.79777
thorax -7.63041 -0.0909681 -0.93107
lowerneck -9.64391 -4.26937 -5.25646
upperneck 10.1889 -5.91153 7.72161
head 5.03006 -2.61286 2.82344
rclavicle -5.56597e-015 -5.725e-014
rhumerus -3.3185 30.2002 -2.69613
rradius 18.6748
rwrist -7.27574
rhand 8.45834 -12.8617
rfingers 7.12502
rthumb 33.6627 -39.7197
lclavicle -5.56597e-015 -5.725e-014
lhumerus -23.3018 -17.3815 7.67677
lradius 16.5546
lwrist -47.4826
lhand -8.71343 24.7499
lfingers 7.12502
lthumb 17.2223 54.0067
rfemur -58.196 24.5988 -14.9998
rtibia 40.8395
rfoot -22.2338 -8.27906
rtoes -24.3678
lfemur -50.3635 -8.58857 -20.4725
ltibia 43.3644
lfoot -24.7087 9.26753
ltoes 2.45015
601
root -1.62158 16.3791 -10.4155 30.4578 24.9314 3.45936
lowerback 5.70178 -0.386301 7.69881
upperback -4.52371 0.42793 2.76992
thorax -7.98306 -0.121037 -1.43777
lowerneck -9.91985 -4.85488 -5.73782
upperneck 9.55145 -6.65995 8.34914
head 4.96928 -2.96099 3.03251
rclavicle 4.45278e-014 -1.90833e-014
rhumerus -1.78828 29.3377 -3.77197
rradius 18.5319
rwrist -4.75151
rhand 8.55269 -11.8943
rfingers 7.12502
rthumb 33.7524 -38.7327
lclavicle 4.45278e-014 -1.90833e-014
lhumerus -23.6171 -17.9467 7.69083
lradius 16.5044
lwrist -47.1167
lhand -7.30194 24.6986
lfingers 7.12502
lthumb 18.5804 53.8313
rfemur -57.8613 24.3284 -14.3821
rtibia 41.2204
rfoot -22.4757 -11.3006
rtoes -23.92
lfemur -51.2077 -8.97846 -19.9154
ltibia 43.3011
lfoot -23.3652 8.3699
ltoes -1.32644
602
root -1.72198 16.3881 -10.3836 31.22 26.6941 4.14259
lowerback 6.31308 -0.381561 7.79902
upperback -4.39931 0.502828 2.77911
thorax -8.20081 -0.0933563 -1.49343
lowerneck -10.2227 -5.41318 -6.22983
upperneck 8.79391 -7.34111 8.86415
head 4.87554 -3.28519 3.21136
rclavicle 5.56597e-015 -9.54166e-015
rhumerus 0.158871 28.6301 -4.61391
rradius 18.1775
rwrist -2.63546
rhand 9.16723 -11.2609
rfingers 7.12502
rthumb 34.3361 -37.9695
lclavicle 5.56597e-015 -9.54166e-015
lhumerus -23.9343 -17.8615 7.78274
lradius 16.4095
lwrist -47.2371
lhand -8.14742 25.7519
lfingers 7.12502
lthumb 17.767 54.9602
rfemur -57.7641 24.4765 -14.3866
rtibia 41.4652
rfoot -22.6024 -14.3092
rtoes -22.2856
lfemur -51.9297 -9.16087 -19.7232
ltibia 43.0933
lfoot -21.9961 7.31577
ltoes -5.47204
